<?xml version="1.0" encoding="UTF-8" standalone="no"?><!DOCTYPE svg PUBLIC "-//W3C//DTD SVG 1.1//EN" "http://www.w3.org/Graphics/SVG/1.1/DTD/svg11.dtd"><!-- Generated by graphviz version 2.40.1 (20161225.0304)
 --><!-- Title: G Pages: 1 --><svg xmlns="http://www.w3.org/2000/svg" xmlns:xlink="http://www.w3.org/1999/xlink" width="126pt" height="165pt" viewBox="0.00 0.00 125.86 164.72">
<g id="graph0" class="graph" transform="scale(1 1) rotate(0) translate(4 160.7214)">
<title>G</title>
<polygon fill="#ffffff" stroke="transparent" points="-4,4 -4,-160.7214 121.8607,-160.7214 121.8607,4 -4,4"/>
<!-- 1 -->
<g id="node1" class="node">
<title>1</title>
<ellipse fill="none" stroke="#000000" cx="28.9304" cy="-135.7911" rx="20.861" ry="20.861"/>
<text text-anchor="middle" x="28.9304" y="-130.3911" font-family="Times,serif" font-size="18.00" fill="#000000">1</text>
</g>
<!-- 2 -->
<g id="node2" class="node">
<title>2</title>
<ellipse fill="none" stroke="#000000" cx="88.9304" cy="-20.9304" rx="20.861" ry="20.861"/>
<text text-anchor="middle" x="88.9304" y="-15.5304" font-family="Times,serif" font-size="18.00" fill="#000000">2</text>
</g>
<!-- 1&#45;&#45;2 -->
<g id="edge1" class="edge">
<title>1--2</title>
<path fill="none" stroke="#000000" d="M38.7039,-117.0811C49.8613,-95.722 68.0053,-60.9881 79.161,-39.6323"/>
</g>
<!-- 3 -->
<g id="node3" class="node">
<title>3</title>
<ellipse fill="none" stroke="#000000" cx="20.9304" cy="-20.9304" rx="20.861" ry="20.861"/>
<text text-anchor="middle" x="20.9304" y="-15.5304" font-family="Times,serif" font-size="18.00" fill="#000000">3</text>
</g>
<!-- 1&#45;&#45;3 -->
<g id="edge2" class="edge">
<title>1--3</title>
<path fill="none" stroke="#000000" d="M27.463,-114.7239C26.0196,-93.9993 23.8286,-62.5423 22.3884,-41.864"/>
</g>
<!-- 0 -->
<g id="node4" class="node">
<title>0</title>
<ellipse fill="none" stroke="#000000" cx="96.9304" cy="-135.7911" rx="20.861" ry="20.861"/>
<text text-anchor="middle" x="96.9304" y="-130.3911" font-family="Times,serif" font-size="18.00" fill="#000000">0</text>
</g>
<!-- 0&#45;&#45;2 -->
<g id="edge3" class="edge">
<title>0--2</title>
<path fill="none" stroke="#000000" d="M95.463,-114.7239C94.0196,-93.9993 91.8286,-62.5423 90.3884,-41.864"/>
</g>
</g>
</svg>